<svg xmlns="http://www.w3.org/2000/svg" xmlns:xlink="http://www.w3.org/1999/xlink" width="109.374" height="170.936" viewBox="0 0 109.374 170.936">
  <defs>
    <clipPath id="clip-path">
      <rect id="Rectangle_8733" data-name="Rectangle 8733" width="109.374" height="170.936" fill="none"/>
    </clipPath>
  </defs>
  <g id="Group_18546" data-name="Group 18546" transform="translate(0 0)">
    <g id="Group_18545" data-name="Group 18545" transform="translate(0 0)" clip-path="url(#clip-path)">
      <path id="Path_47014" data-name="Path 47014" d="M15.234,2.243C25.891-2.373,37.6.706,41.24,6.307c3.474,5.35-2.627,9.6.117,15.24,4.308,8.85,21.7,3.188,28.9,11.167,7.433,8.238-6.956,18.867-2.75,31.7C72.66,80.136,97.65,74.423,106.36,89.358c8.337,14.3-.8,43.126-25.157,53.558-21.5,9.211-47.675,1-53.79-12.5-7.143-15.765,16.225-31.8,7.476-45.722C27.033,72.2,4.089,78.575.415,66.242-2.657,55.928,12.45,48.289,9.278,34.607,7.195,25.622-.479,23.922,1.714,16.029,3.226,10.585,8.622,5.108,15.234,2.243" transform="translate(-0.001 0)" fill="#8fd0d6"/>
      <path id="Path_47015" data-name="Path 47015" d="M89.82,182.255a1.944,1.944,0,0,0,.839-3.7c-8.142-3.891-23.382-20.684-49.746-78.593C25.026,65.07,12.582,31.455,12.458,31.12a1.944,1.944,0,1,0-3.647,1.346c2.037,5.517,50.223,135.289,80.172,149.6a1.935,1.935,0,0,0,.837.19" transform="translate(12.214 -11.32)" fill="#ebebeb"/>
      <path id="Path_47016" data-name="Path 47016" d="M68.753,183.882a1.945,1.945,0,0,0,1.777-1.157l14.62-33.009a1.944,1.944,0,0,0-3.556-1.574l-13.952,31.5-26-6.687a1.944,1.944,0,1,0-.969,3.765l27.592,7.1a1.948,1.948,0,0,0,.485.061" transform="translate(-0.286 -55.745)" fill="#ebebeb"/>
      <path id="Path_47017" data-name="Path 47017" d="M114.105,88.878a1.945,1.945,0,0,0,1.619-.868l14-21.076a1.944,1.944,0,1,0-3.238-2.152L113.206,84.775,89.067,80a1.944,1.944,0,0,0-.754,3.814l25.415,5.028a1.945,1.945,0,0,0,.377.037" transform="translate(-74.526 -24.24)" fill="#ebebeb"/>
    </g>
  </g>
</svg>
