<svg xmlns="http://www.w3.org/2000/svg" xmlns:xlink="http://www.w3.org/1999/xlink" width="255.033" height="455.757" viewBox="0 0 255.033 455.757">
  <defs>
    <clipPath id="clip-path">
      <rect id="Rectangle_8725" data-name="Rectangle 8725" width="255.033" height="455.757" fill="none"/>
    </clipPath>
    <linearGradient id="linear-gradient" x1="0.5" y1="0.616" x2="0.5" y2="0.117" gradientUnits="objectBoundingBox">
      <stop offset="0" stop-color="#fff"/>
      <stop offset="1" stop-color="#e8f4f5"/>
    </linearGradient>
    <clipPath id="clip-path-2">
      <rect id="Rectangle_8726" data-name="Rectangle 8726" width="198.314" height="376.808" fill="none"/>
    </clipPath>
  </defs>
  <g id="Group_18613" data-name="Group 18613" transform="translate(-2744.229 -21740.93)">
    <g id="Group_18530" data-name="Group 18530" transform="translate(2744.229 21740.93)">
      <g id="Group_18529" data-name="Group 18529" clip-path="url(#clip-path)">
        <path id="Path_46929" data-name="Path 46929" d="M236.871,428.974H54.067a22.15,22.15,0,0,1-22.15-22.15V22.155A22.15,22.15,0,0,1,54.067,0h182.8a22.15,22.15,0,0,1,22.15,22.15V406.824a22.15,22.15,0,0,1-22.15,22.15" transform="translate(-17.953 -0.005)" fill="#767676"/>
        <path id="Path_46930" data-name="Path 46930" d="M258.74,56.24H69.138a4.311,4.311,0,0,0-4.311,4.311V428.736a4.311,4.311,0,0,0,4.311,4.311h189.6a4.311,4.311,0,0,0,4.311-4.311V60.551a4.311,4.311,0,0,0-4.311-4.311" transform="translate(-36.464 -31.635)" fill="url(#linear-gradient)"/>
        <path id="Path_46931" data-name="Path 46931" d="M284.216,27.42H249.68a1.726,1.726,0,0,1-1.721-1.721V24.22A1.726,1.726,0,0,1,249.68,22.5h34.536a1.726,1.726,0,0,1,1.721,1.721V25.7a1.726,1.726,0,0,1-1.721,1.721" transform="translate(-139.472 -12.657)" fill="#fff"/>
      </g>
    </g>
    <g id="Group_18532" data-name="Group 18532" transform="translate(2772.588 21765.533)">
      <g id="Group_18531" data-name="Group 18531" clip-path="url(#clip-path-2)">
        <path id="Path_46936" data-name="Path 46936" d="M247.289,452.762s-12.489,20.658-20.1,20.658,17.986,19.938,31.729,19.938,33.054-16.767,34.322-19.938-23.961-2.263-24.173-16.852-21.779-3.806-21.779-3.806" transform="translate(-155.369 -277.118)" fill="#b78876"/>
        <path id="Path_46937" data-name="Path 46937" d="M228.932,316.845S235.055,377.31,260,378.579s42.509-70.936,42.509-72.267-50.746-14.863-50.746-14.863Z" transform="translate(-157.13 -188.541)" fill="#b78876"/>
        <path id="Path_46938" data-name="Path 46938" d="M383.484,302.021s-.123,16.75-6.088,30.738c0,0,17.083-4.52,12.431-41.31Z" transform="translate(-240.638 -188.541)" fill="#283238"/>
        <path id="Path_46939" data-name="Path 46939" d="M218.981,281.929l26.809,14.737s-8.88,11.041-28.333,14.824l1.524,13.259s-11.25-11.6-10.4-20.9,10.4-21.921,10.4-21.921" transform="translate(-145.654 -183.186)" fill="#283238"/>
        <path id="Path_46940" data-name="Path 46940" d="M226.567,370.971a2.5,2.5,0,0,0-1.733-1.779c-2.962-.843-9.74-1.946-11.1,5.065-1.5,7.7,7.543,13.039,13.922,12.906A2.507,2.507,0,0,0,229.976,384Z" transform="translate(-148.486 -231.92)" fill="#b78876"/>
        <path id="Path_46941" data-name="Path 46941" d="M219.509,254.832s23.484,18.185,55.2,15.225a45.6,45.6,0,0,0,39.751-30.448s-31.026-5.164-47.94-19.875c-15.073-13.109-54.4,17.761-47.011,35.1" transform="translate(-151.315 -146.427)" fill="#283238"/>
        <path id="Path_46942" data-name="Path 46942" d="M362.04,370.971a2.494,2.494,0,0,1,1.733-1.779c2.962-.843,9.74-1.946,11.1,5.065,1.5,7.7-7.543,13.039-13.923,12.906A2.507,2.507,0,0,1,358.63,384Z" transform="translate(-230.036 -231.92)" fill="#b78876"/>
        <path id="Path_46943" data-name="Path 46943" d="M185.394,504.676s-33.18-4.059-41.586,4.559c-13.184,13.518,23.227,38.9,18.385,85.264-8.281,79.287-4.4,106.783-17.348,109.775-5.783,1.336,125.947,3.5,128.045,2.429,4.23-2.156-3.019-65.132-10.885-115.873-4.632-29.875,28.848-63.956,12.727-78.1-9.242-8.109-36.446-12.177-41.212-8.051-12.262,10.618-23.6,21.332-48.126,0" transform="translate(-107.621 -307.559)" fill="#fff"/>
        <path id="Path_46944" data-name="Path 46944" d="M450.273,584.237s-9.994-58.393-32.725-62.478c-25.214-4.531-11.089,70.261-11.089,70.261s29.326.511,43.814-7.783" transform="translate(-254.767 -317.974)" fill="#8fd0d6"/>
        <path id="Path_46945" data-name="Path 46945" d="M375.275,513.5c-15.745-16.788-47.462-18.711-47.462-18.711l3.611,24.809-3.517,5.527.5,8.291-20.6,48.988,2.305,151.666,75.593-24.219s-13.868-86.781-24.323-122.2l5.073,9.956,34.558,101.6,27.155-77.06S391.02,530.284,375.275,513.5" transform="translate(-201.496 -302.914)" fill="#49a29c"/>
        <path id="Path_46946" data-name="Path 46946" d="M102.663,533.91l3.768-9.3-9.8-3.517-.015-.147,9.734-26.17s-35.359-.614-50.942,16.173S0,679.753,0,679.753l46.236,27.521L74.492,581.042l-.233.02C66.052,615.535,62.382,718.65,62.382,718.65l57.245,8.807,5.143-146.819Z" transform="translate(-28.359 -302.909)" fill="#49a29c"/>
        <path id="Path_46947" data-name="Path 46947" d="M327.92,494.135s5.6-1.3,13.882.823l-4.084,25.3-10.049,4.271,7.788,8.291-27.886,48.988Z" transform="translate(-201.363 -302.325)" fill="#fff"/>
        <path id="Path_46948" data-name="Path 46948" d="M245.069,581.233l-22.108-49.491,3.768-9.3-9.8-3.517-2.043-19.648-1.018-7.742c9.541-1.835,14.27,1.012,14.27,1.012l2.43,9.913,14.5,76.256Z" transform="translate(-148.659 -300.741)" fill="#fff"/>
        <path id="Path_46949" data-name="Path 46949" d="M361.319,566.233a2.137,2.137,0,0,1-2.005-2.871c3.893-10.63,4.867-26.446,2.6-42.31-2.082-14.6-6.691-26.03-11.469-28.44a2.136,2.136,0,0,1,1.924-3.814c6.247,3.151,11.4,14.982,13.773,31.651,2.358,16.529,1.3,33.121-2.822,44.382a2.137,2.137,0,0,1-2.006,1.4" transform="translate(-224.82 -299.418)" fill="#262c33"/>
        <path id="Path_46950" data-name="Path 46950" d="M374.683,660.267a9.5,9.5,0,1,0-13.231,2.336,9.5,9.5,0,0,0,13.231-2.336" transform="translate(-230.45 -388.646)" fill="#283338"/>
        <path id="Path_46951" data-name="Path 46951" d="M377.746,664.163a6.113,6.113,0,1,0-8.513,1.5,6.113,6.113,0,0,0,8.513-1.5" transform="translate(-236.289 -394.485)" fill="#2c5888"/>
        <path id="Path_46952" data-name="Path 46952" d="M181.285,640.574a10.523,10.523,0,0,1-7.064-2.237c-2.937-2.592-3.512-18.191-3.6-21.292-.341-12.4.777-24.023,3.07-31.9,2.274-7.811,5.7-12.129,10.18-12.836,4.177-.658,8.142,2.022,11.785,7.968,5.89,9.615,9.316,24.962,10.515,31.115.388,1.988,3.715,19.517,1.255,22.9-4.361,6.007-11.577,4.381-11.882,4.31l.7-2.969c.22.05,5.559,1.208,8.71-3.132.593-1.064.617-8.892-2.085-22.052s-6.631-24.105-10.786-30.066c-2.618-3.757-5.222-5.465-7.739-5.064-2.815.444-5.178,3.3-7.021,8.485-6.13,17.239-3.277,49.792-1.067,52.256,2.781,2.452,8.714,1.22,10.764.538l.97,2.892a23.352,23.352,0,0,1-6.709,1.075" transform="translate(-124.298 -346.468)" fill="#bec5d9"/>
        <path id="Path_46953" data-name="Path 46953" d="M175.454,596.41l-4.241-.508c1.857-15.515,6.207-23.92,12.93-24.98s12.729,5.726,17.832,20.176l-4.028,1.422c-4.135-11.709-8.917-18.046-13.139-17.38-4.411.7-7.82,8.448-9.355,21.268" transform="translate(-124.664 -345.679)" fill="#262c33"/>
        <path id="Path_46954" data-name="Path 46954" d="M204.069,718.346l-3.5.387a1.539,1.539,0,0,0-1.362,1.7l.145,1.316a1.54,1.54,0,0,0,1.7,1.362l3.5-.387a1.54,1.54,0,0,0,1.362-1.7l-.145-1.316a1.54,1.54,0,0,0-1.7-1.362" transform="translate(-140.403 -428.657)" fill="#017280"/>
        <path id="Path_46955" data-name="Path 46955" d="M227.411,715.77l-3.5.387a1.539,1.539,0,0,0-1.362,1.7l.145,1.316a1.54,1.54,0,0,0,1.7,1.362l3.5-.387a1.54,1.54,0,0,0,1.362-1.7l-.145-1.316a1.54,1.54,0,0,0-1.7-1.362" transform="translate(-153.532 -427.208)" fill="#017280"/>
        <path id="Path_46956" data-name="Path 46956" d="M198.106,528.907a2.137,2.137,0,0,1-2.023-1.451c-4.09-12.072,12.516-32.935,20.622-38.51a2.136,2.136,0,1,1,2.421,3.519c-8.115,5.582-22.03,24.667-19,33.62a2.137,2.137,0,0,1-2.023,2.822" transform="translate(-138.294 -299.418)" fill="#1a2a31"/>
      </g>
    </g>
    <circle id="Ellipse_2433" data-name="Ellipse 2433" cx="2" cy="2" r="2" transform="translate(2865 21898)"/>
    <circle id="Ellipse_2434" data-name="Ellipse 2434" cx="2" cy="2" r="2" transform="translate(2888 21900)"/>
    <path id="Path_46964" data-name="Path 46964" d="M3194.342,21832.658a8.106,8.106,0,0,1,3.82-1.277,8.2,8.2,0,0,1,4.028,1.619" transform="translate(-331.503 64)" fill="none" stroke="#000" stroke-linecap="round" stroke-width="1"/>
    <path id="Path_46965" data-name="Path 46965" d="M3194.342,21832.658a8.106,8.106,0,0,1,3.82-1.277,8.2,8.2,0,0,1,4.028,1.619" transform="translate(-308.503 66)" fill="none" stroke="#000" stroke-linecap="round" stroke-width="1"/>
    <path id="Path_46966" data-name="Path 46966" d="M3210.241,21832.525s-7.724,14.4-8.051,17.254,5.261,2.293,5.261,2.293" transform="matrix(0.978, -0.208, 0.208, 0.978, -4800.21, 1218.916)" fill="none" stroke="#000" stroke-linecap="round" stroke-width="1"/>
    <path id="Path_46967" data-name="Path 46967" d="M6.231,1.574C8.44,1.574,8,1.791,8,4A4,4,0,0,1,4,8C1.791,8,.865,7.375.865,5.166S4.022,1.574,6.231,1.574Z" transform="translate(2876.335 21928.418) rotate(30)" fill="#ab6552"/>
    <path id="Path_46968" data-name="Path 46968" d="M3205.549,21860.738a16.406,16.406,0,0,0,5.174-1.641,10.948,10.948,0,0,0,3.435-3.334" transform="translate(11384.304 1543.876) rotate(31)" fill="none" stroke="#000" stroke-linecap="round" stroke-width="1"/>
    <path id="Path_46969" data-name="Path 46969" d="M3195.981,21825.979h0Z" transform="translate(-332 64)" fill="none" stroke="#000" stroke-linecap="round" stroke-width="3"/>
    <path id="Path_46970" data-name="Path 46970" d="M3195.981,21825.979h0Z" transform="translate(-309.336 64)" fill="none" stroke="#000" stroke-linecap="round" stroke-width="3"/>
    <path id="Path_46971" data-name="Path 46971" d="M3208.535,21876.479s17.166-1.959,19.627-1.371-4.81,5.008-10.924,5.361A9.492,9.492,0,0,1,3208.535,21876.479Z" transform="matrix(0.995, 0.105, -0.105, 0.995, 1960.829, -141.797)" fill="#a86550" opacity="0.665"/>
  </g>
</svg>
