<svg xmlns="http://www.w3.org/2000/svg" xmlns:xlink="http://www.w3.org/1999/xlink" width="75.607" height="63.534" viewBox="0 0 75.607 63.534">
  <defs>
    <clipPath id="clip-path">
      <rect id="Rectangle_8730" data-name="Rectangle 8730" width="67.496" height="52.613" fill="#e2e2e2"/>
    </clipPath>
  </defs>
  <g id="Group_18542" data-name="Group 18542" transform="matrix(0.985, -0.174, 0.174, 0.985, 0, 11.721)">
    <g id="Group_18541" data-name="Group 18541" clip-path="url(#clip-path)">
      <path id="Path_46981" data-name="Path 46981" d="M.406,28.926C-1.749,18.728,5,8.071,13.064,3.2,19.273-.548,25.2-.223,35.521.344c14.35.788,23.552,1.294,28.582,8.166,6.585,9,3.076,24.876-6.125,33.482-9.941,9.3-23.514,7.285-28.582,6.533a60.369,60.369,0,0,1-9.561-2.19c-.875,2.669-4.008,5.992-14.1,6.277,0,0,2.662-4.816,1.948-12.443A19.421,19.421,0,0,1,.406,28.926" transform="translate(0 0)" fill="#f6f6f6"/>
      <path id="Path_46982" data-name="Path 46982" d="M229.956,114.551a3.1,3.1,0,1,0,3.1-3.1,3.1,3.1,0,0,0-3.1,3.1" transform="translate(-185.975 -90.136)" fill="#fff"/>
      <path id="Path_46983" data-name="Path 46983" d="M166.382,114.551a3.1,3.1,0,1,0,3.1-3.1,3.1,3.1,0,0,0-3.1,3.1" transform="translate(-134.56 -90.136)" fill="#fff"/>
      <path id="Path_46984" data-name="Path 46984" d="M102.807,114.551a3.1,3.1,0,1,0,3.1-3.1,3.1,3.1,0,0,0-3.1,3.1" transform="translate(-83.144 -90.136)" fill="#fff"/>
    </g>
  </g>
</svg>
