<svg id="Group_18544" data-name="Group 18544" xmlns="http://www.w3.org/2000/svg" xmlns:xlink="http://www.w3.org/1999/xlink" width="78.838" height="94" viewBox="0 0 78.838 94">
  <defs>
    <clipPath id="clip-path">
      <rect id="Rectangle_8732" data-name="Rectangle 8732" width="78.838" height="94" fill="none"/>
    </clipPath>
  </defs>
  <g id="Group_18543" data-name="Group 18543" clip-path="url(#clip-path)">
    <path id="Path_46985" data-name="Path 46985" d="M76.781,81.053,20.634,93.932a2.649,2.649,0,0,1-3.174-1.989L.068,16.121a2.649,2.649,0,0,1,1.989-3.174L58.2.068a2.649,2.649,0,0,1,3.174,1.989L78.77,77.88a2.649,2.649,0,0,1-1.989,3.174" transform="translate(0 0)" fill="#e3e3e3"/>
    <rect id="Rectangle_8731" data-name="Rectangle 8731" width="28.357" height="3.748" transform="translate(16.765 9.789) rotate(-12.919)" fill="#e3e3e3"/>
    <path id="Path_46986" data-name="Path 46986" d="M93.189,96.7,46.427,107.422a.286.286,0,0,1-.343-.215L28.772,31.731a.286.286,0,0,1,.215-.343L82.009,19.226a.286.286,0,0,1,.343.215l15.97,69.623Z" transform="translate(-24.866 -16.614)" fill="#fff"/>
    <path id="Path_46987" data-name="Path 46987" d="M500.651,534.579l-6.261,1.436a.286.286,0,0,0-.215.343l1.342,5.852Z" transform="translate(-427.194 -462.129)" fill="#fff"/>
    <path id="Path_46988" data-name="Path 46988" d="M494.728,541.49a.132.132,0,0,1-.182-.091l-1.342-5.852a.418.418,0,0,1,.314-.5l6.261-1.436a.132.132,0,0,1,.139.2l-5.134,7.631a.132.132,0,0,1-.056.047m-1.179-6.177a.154.154,0,0,0-.088.175l1.274,5.555,4.777-7.1-5.936,1.362a.141.141,0,0,0-.028.009" transform="translate(-426.352 -461.288)" fill="#b4c2df"/>
    <path id="Path_46989" data-name="Path 46989" d="M203.972,150.572l-32.784,7.52a.622.622,0,1,1-.278-1.212l32.784-7.52a.622.622,0,1,1,.278,1.212" transform="translate(-147.31 -129.102)" fill="#e3e3e3"/>
    <path id="Path_46990" data-name="Path 46990" d="M206.969,176.161l-30.715,7.046a.622.622,0,1,1-.278-1.212l30.715-7.045a.622.622,0,1,1,.278,1.212" transform="translate(-151.689 -151.223)" fill="#e3e3e3"/>
    <path id="Path_46991" data-name="Path 46991" d="M93.278,209a1.031,1.031,0,0,1-.182.059l-6.41,1.47a.234.234,0,0,1-.179-.038.6.6,0,0,1-.262-.357l-1.47-6.41a.483.483,0,0,1,.363-.58l6.41-1.47a.484.484,0,0,1,.58.363l1.47,6.41a.479.479,0,0,1-.321.553" transform="translate(-73.275 -174.328)" fill="#fff"/>
    <path id="Path_46992" data-name="Path 46992" d="M83.869,202.089a.291.291,0,0,1,.052-.017l6.41-1.47a.286.286,0,0,1,.343.215l1.47,6.41c.029.125-.029.249-.207.327a.806.806,0,0,1-.147.047l-6.41,1.47a.385.385,0,0,1-.2-.247l-1.47-6.41a.286.286,0,0,1,.163-.326m-.159-.362h0a.682.682,0,0,0-.39.776l1.47,6.41c.069.3.387.611.677.544l6.41-1.47a1.208,1.208,0,0,0,.218-.071.677.677,0,0,0,.434-.778l-1.47-6.41a.682.682,0,0,0-.817-.512l-6.41,1.47a.686.686,0,0,0-.123.041" transform="translate(-72.013 -173.066)" fill="#e3e3e3"/>
    <path id="Path_46993" data-name="Path 46993" d="M223.083,235.269l-32.784,7.52a.622.622,0,1,1-.278-1.212l32.784-7.52a.622.622,0,1,1,.278,1.212" transform="translate(-163.83 -202.321)" fill="#e3e3e3"/>
    <path id="Path_46994" data-name="Path 46994" d="M226.081,260.858,195.366,267.9a.622.622,0,1,1-.278-1.212l30.715-7.045a.622.622,0,1,1,.278,1.212" transform="translate(-168.211 -224.442)" fill="#e3e3e3"/>
    <path id="Path_46995" data-name="Path 46995" d="M112.435,293.8a.486.486,0,0,1-.087.029l-6.41,1.47a.484.484,0,0,1-.58-.363l-1.47-6.41a.526.526,0,0,1,.188-.536.2.2,0,0,1,.036-.012l6.41-1.47a.733.733,0,0,1,.461.02.44.44,0,0,1,.258.311l1.47,6.41a.485.485,0,0,1-.276.551" transform="translate(-89.798 -247.658)" fill="#fff"/>
    <path id="Path_46996" data-name="Path 46996" d="M102.9,286.913h0l6.41-1.47c.293-.067.447.029.482.183l1.47,6.41a.286.286,0,0,1-.163.326.293.293,0,0,1-.051.017l-6.41,1.47a.286.286,0,0,1-.343-.215l-1.47-6.41a.387.387,0,0,1,.075-.31m-.16-.362h0a.709.709,0,0,0-.3.761l1.47,6.41a.682.682,0,0,0,.817.512l6.41-1.47a.681.681,0,0,0,.512-.817l-1.47-6.41a.642.642,0,0,0-.371-.448.924.924,0,0,0-.585-.032l-6.41,1.47a.408.408,0,0,0-.072.024" transform="translate(-88.539 -246.397)" fill="#e3e3e3"/>
    <path id="Path_46997" data-name="Path 46997" d="M242.495,319.9l-32.783,7.52a.622.622,0,1,1-.278-1.212l32.784-7.52a.622.622,0,1,1,.278,1.212" transform="translate(-180.612 -275.48)" fill="#e3e3e3"/>
    <path id="Path_46998" data-name="Path 46998" d="M245.493,345.486l-30.715,7.045a.622.622,0,1,1-.278-1.212l30.715-7.045a.622.622,0,1,1,.278,1.212" transform="translate(-184.992 -297.6)" fill="#e3e3e3"/>
    <path id="Path_46999" data-name="Path 46999" d="M131.847,378.433a.488.488,0,0,1-.087.029l-6.41,1.47a.484.484,0,0,1-.58-.363l-1.47-6.41a.526.526,0,0,1,.188-.536.193.193,0,0,1,.037-.012l6.409-1.47a.734.734,0,0,1,.461.02.44.44,0,0,1,.258.311l1.47,6.41a.484.484,0,0,1-.276.551" transform="translate(-106.579 -320.818)" fill="#fff"/>
    <path id="Path_47000" data-name="Path 47000" d="M122.309,371.542h0l6.41-1.47c.293-.067.447.029.482.183l1.47,6.41a.286.286,0,0,1-.163.326.29.29,0,0,1-.051.017l-6.41,1.47a.286.286,0,0,1-.343-.215l-1.47-6.41a.387.387,0,0,1,.075-.31m-.16-.362h0a.709.709,0,0,0-.3.761l1.47,6.41a.683.683,0,0,0,.817.512l6.41-1.47a.682.682,0,0,0,.512-.817l-1.47-6.41a.642.642,0,0,0-.371-.448.924.924,0,0,0-.585-.032l-6.41,1.47a.405.405,0,0,0-.072.024" transform="translate(-105.32 -319.555)" fill="#e3e3e3"/>
    <path id="Path_47001" data-name="Path 47001" d="M261.908,404.526l-32.784,7.52a.622.622,0,1,1-.278-1.212l32.784-7.52a.622.622,0,1,1,.278,1.212" transform="translate(-197.394 -348.639)" fill="#e3e3e3"/>
    <path id="Path_47002" data-name="Path 47002" d="M264.905,430.115,234.19,437.16a.622.622,0,1,1-.278-1.212l30.715-7.045a.622.622,0,1,1,.278,1.212" transform="translate(-201.773 -370.76)" fill="#e3e3e3"/>
    <path id="Path_47003" data-name="Path 47003" d="M151.248,462.917a.476.476,0,0,1-.083.027l-6.453,1.48a.463.463,0,0,1-.553-.347l-1.48-6.453a.461.461,0,0,1,.347-.553l6.453-1.48a.462.462,0,0,1,.553.347l1.48,6.453a.462.462,0,0,1-.264.526" transform="translate(-123.331 -393.836)" fill="#fff"/>
    <path id="Path_47004" data-name="Path 47004" d="M141.76,456.019a.261.261,0,0,1,.048-.016l6.453-1.48a.264.264,0,0,1,.316.2l1.48,6.453a.264.264,0,0,1-.2.316l-6.453,1.48a.264.264,0,0,1-.316-.2l-1.48-6.453a.264.264,0,0,1,.151-.3m-.159-.362a.66.66,0,0,0-.377.751l1.48,6.453a.66.66,0,0,0,.791.5l6.453-1.48a.66.66,0,0,0,.5-.79l-1.48-6.453a.661.661,0,0,0-.79-.5l-6.453,1.48a.664.664,0,0,0-.119.039" transform="translate(-122.069 -392.575)" fill="#e3e3e3"/>
    <path id="Path_47005" data-name="Path 47005" d="M281.32,489.154l-32.784,7.52a.622.622,0,1,1-.278-1.212l32.784-7.52a.622.622,0,1,1,.278,1.212" transform="translate(-214.175 -421.797)" fill="#e3e3e3"/>
    <path id="Path_47006" data-name="Path 47006" d="M284.318,514.743,253.6,521.788a.622.622,0,1,1-.278-1.212l30.715-7.045a.622.622,0,1,1,.278,1.212" transform="translate(-218.555 -443.918)" fill="#e3e3e3"/>
    <path id="Path_47007" data-name="Path 47007" d="M170.66,547.545a.479.479,0,0,1-.083.028l-6.453,1.48a.462.462,0,0,1-.553-.347l-1.48-6.453a.462.462,0,0,1,.264-.526.457.457,0,0,1,.083-.027l6.453-1.48a.462.462,0,0,1,.553.347l1.48,6.453a.462.462,0,0,1-.264.526" transform="translate(-140.112 -466.995)" fill="#fff"/>
    <path id="Path_47008" data-name="Path 47008" d="M161.172,540.648a.268.268,0,0,1,.048-.016l6.453-1.48a.264.264,0,0,1,.316.2l1.48,6.453a.264.264,0,0,1-.151.3.259.259,0,0,1-.048.016l-6.453,1.48a.264.264,0,0,1-.316-.2l-1.48-6.453a.264.264,0,0,1,.151-.3m-.159-.362h0a.66.66,0,0,0-.377.751l1.48,6.453a.66.66,0,0,0,.791.5l6.453-1.48a.671.671,0,0,0,.118-.039.66.66,0,0,0,.377-.751l-1.48-6.453a.66.66,0,0,0-.79-.5l-6.453,1.48a.664.664,0,0,0-.118.039" transform="translate(-138.85 -465.734)" fill="#e3e3e3"/>
    <path id="Path_47009" data-name="Path 47009" d="M148.321,18.223l-27.1,6.216a.611.611,0,0,1-.73-.458l-.117-.51a.611.611,0,0,1,.458-.73l27.1-6.216a.611.611,0,0,1,.73.458l.117.51a.611.611,0,0,1-.458.73" transform="translate(-104.048 -14.272)" fill="#e3e3e3"/>
    <path id="Path_47010" data-name="Path 47010" d="M132.06,28.791c-1.081.248-1.777.4-1.793.405s-3.53.839-7.115,1.582c-7.456,1.544-7.981,1.217-8.3,1.022a.672.672,0,0,1-.307-.42l-1.015-4.424a1.746,1.746,0,0,1,.2-1.354,2.145,2.145,0,0,1,1.263-.857l.237,1.083a.713.713,0,0,0-.617.88l.953,4.154c1.407.1,8.266-1.275,14.452-2.747,6.206-1.37,12.965-3.1,14.222-3.79l-.962-4.192a.652.652,0,0,0-.271-.438,1.057,1.057,0,0,0-.668-.084l-.258-1.078a2.141,2.141,0,0,1,1.51.22,1.746,1.746,0,0,1,.768,1.132l1.027,4.476a.659.659,0,0,1-.091.5c-.19.3-.508.8-7.907,2.654-1.986.5-3.963.96-5.328,1.273" transform="translate(-98.1 -15.978)" fill="#e3e3e3"/>
    <path id="Path_47011" data-name="Path 47011" d="M98.181,216.222a.4.4,0,0,1-.08.026.4.4,0,0,1-.373-.122l-2.581-2.853a.4.4,0,0,1,.587-.531l2.132,2.357,1.637-4.736a.4.4,0,1,1,.748.259L98.4,215.989a.4.4,0,0,1-.215.233" transform="translate(-82.163 -181.622)" fill="#e3e3e3"/>
    <path id="Path_47012" data-name="Path 47012" d="M118.346,300.235a.4.4,0,0,1-.453-.1l-2.581-2.853a.4.4,0,0,1,.587-.531l2.132,2.357,1.637-4.735a.4.4,0,1,1,.748.259L118.56,300a.4.4,0,0,1-.215.233" transform="translate(-99.595 -254.249)" fill="#e3e3e3"/>
    <path id="Path_47013" data-name="Path 47013" d="M176.131,554.665a.406.406,0,0,1-.08.026.4.4,0,0,1-.373-.122l-2.581-2.853a.4.4,0,0,1,.587-.531l2.132,2.357,1.637-4.736a.4.4,0,0,1,.748.259l-1.856,5.368a.4.4,0,0,1-.215.233" transform="translate(-149.549 -474.197)" fill="#e3e3e3"/>
  </g>
</svg>
