<svg xmlns="http://www.w3.org/2000/svg" xmlns:xlink="http://www.w3.org/1999/xlink" width="100.816" height="122.512" viewBox="0 0 100.816 122.512">
  <defs>
    <clipPath id="clip-path">
      <rect id="Rectangle_8745" data-name="Rectangle 8745" width="100.816" height="122.512" fill="none"/>
    </clipPath>
    <clipPath id="clip-path-3">
      <rect id="Rectangle_8734" data-name="Rectangle 8734" width="2.957" height="2.956" fill="none"/>
    </clipPath>
    <clipPath id="clip-path-4">
      <rect id="Rectangle_8735" data-name="Rectangle 8735" width="2.956" height="2.956" fill="none"/>
    </clipPath>
    <clipPath id="clip-path-6">
      <rect id="Rectangle_8737" data-name="Rectangle 8737" width="2.956" height="2.957" fill="none"/>
    </clipPath>
    <clipPath id="clip-path-9">
      <rect id="Rectangle_8740" data-name="Rectangle 8740" width="2.957" height="2.957" fill="none"/>
    </clipPath>
  </defs>
  <g id="Group_18580" data-name="Group 18580" transform="translate(0)">
    <g id="Group_18579" data-name="Group 18579" transform="translate(0)" clip-path="url(#clip-path)">
      <g id="Group_18578" data-name="Group 18578">
        <g id="Group_18577" data-name="Group 18577" clip-path="url(#clip-path)">
          <path id="Path_47018" data-name="Path 47018" d="M2.356,101.028l33.014,21.23a3.542,3.542,0,0,0,4.88-1.06L100.562,27.4a3.542,3.542,0,0,0-1.06-4.88L66.488,1.3a3.542,3.542,0,0,0-4.88,1.06L1.3,96.148a3.542,3.542,0,0,0,1.06,4.88" transform="translate(-0.52 -0.521)" fill="#f6f6f6"/>
          <path id="Path_47019" data-name="Path 47019" d="M1.593,100.517,34.94,121.961a3.475,3.475,0,0,0,4.8-1.042l60.528-94.127a3.475,3.475,0,0,0-1.042-4.8L65.875.551a3.475,3.475,0,0,0-4.8,1.042L.55,95.72a3.475,3.475,0,0,0,1.042,4.8m97.48-78.288a3.2,3.2,0,0,1,.959,4.413L39.5,120.769a3.2,3.2,0,0,1-4.413.959L1.743,100.283A3.2,3.2,0,0,1,.784,95.87L61.312,1.743A3.2,3.2,0,0,1,65.725.784Z" transform="translate(0.001 0)" fill="#f3f5f7"/>
          <path id="Path_47020" data-name="Path 47020" d="M30.341,74.493a7.526,7.526,0,1,0,8.136-6.862,7.526,7.526,0,0,0-8.136,6.862" transform="translate(46.53 -47.711)" fill="#f3f5f7"/>
          <path id="Path_47021" data-name="Path 47021" d="M34.272,77.369a6.368,6.368,0,1,0,6.884-5.806,6.368,6.368,0,0,0-6.884,5.806" transform="translate(43.753 -50.489)" fill="#fff"/>
          <path id="Path_47022" data-name="Path 47022" d="M90.189,33.324a7.526,7.526,0,1,0,10.4-2.26,7.526,7.526,0,0,0-10.4,2.26" transform="translate(-29.416 -21.079)" fill="#f3f5f7"/>
          <path id="Path_47023" data-name="Path 47023" d="M93.94,36.728a6.368,6.368,0,1,0,8.8-1.912,6.368,6.368,0,0,0-8.8,1.912" transform="translate(-32.193 -23.857)" fill="#fff"/>
          <path id="Path_47024" data-name="Path 47024" d="M79.484,130.582a7.526,7.526,0,1,0,6.217,8.639,7.526,7.526,0,0,0-6.217-8.639" transform="translate(-5.802 -92.089)" fill="#f3f5f7"/>
          <path id="Path_47025" data-name="Path 47025" d="M82.076,134.5a6.368,6.368,0,1,0,5.261,7.309,6.368,6.368,0,0,0-5.261-7.309" transform="translate(-8.58 -94.866)" fill="#fff"/>
          <path id="Path_47026" data-name="Path 47026" d="M132.25,94.406a7.526,7.526,0,1,0,10.579,1.167,7.526,7.526,0,0,0-10.579-1.167" transform="translate(-81.751 -65.46)" fill="#f3f5f7"/>
          <path id="Path_47027" data-name="Path 47027" d="M135.752,98.086a6.368,6.368,0,1,0,8.951.987,6.368,6.368,0,0,0-8.951-.987" transform="translate(-84.529 -68.237)" fill="#fff"/>
          <path id="Path_47028" data-name="Path 47028" d="M111.236,200.032a7.526,7.526,0,1,0,8.337-6.615,7.526,7.526,0,0,0-8.337,6.615" transform="translate(-58.139 -136.468)" fill="#f3f5f7"/>
          <path id="Path_47029" data-name="Path 47029" d="M115.162,202.943a6.368,6.368,0,1,0,7.055-5.6,6.368,6.368,0,0,0-7.055,5.6" transform="translate(-60.915 -139.246)" fill="#fff"/>
          <path id="Path_47030" data-name="Path 47030" d="M173.242,156.88a7.526,7.526,0,1,0,10.428,2.129,7.526,7.526,0,0,0-10.428-2.129" transform="translate(-134.084 -109.837)" fill="#f3f5f7"/>
          <path id="Path_47031" data-name="Path 47031" d="M176.657,160.624a6.368,6.368,0,1,0,8.824,1.8,6.368,6.368,0,0,0-8.824-1.8" transform="translate(-136.861 -112.615)" fill="#fff"/>
          <path id="Path_47032" data-name="Path 47032" d="M154.67,257.727A7.526,7.526,0,1,0,165.2,259.3a7.526,7.526,0,0,0-10.526-1.57" transform="translate(-110.473 -180.848)" fill="#f3f5f7"/>
          <path id="Path_47033" data-name="Path 47033" d="M158.136,261.435a6.368,6.368,0,1,0,8.907,1.329,6.368,6.368,0,0,0-8.907-1.329" transform="translate(-113.249 -183.625)" fill="#fff"/>
          <path id="Path_47034" data-name="Path 47034" d="M221.741,219.613a7.526,7.526,0,1,0,2.513,10.342,7.526,7.526,0,0,0-2.513-10.342" transform="translate(-186.417 -154.216)" fill="#f3f5f7"/>
          <path id="Path_47035" data-name="Path 47035" d="M223.916,223.379a6.368,6.368,0,1,0,2.127,8.751,6.368,6.368,0,0,0-2.127-8.751" transform="translate(-189.195 -156.993)" fill="#fff"/>
          <path id="Path_47036" data-name="Path 47036" d="M192.061,326.813a7.526,7.526,0,1,0,7.37-7.678,7.526,7.526,0,0,0-7.37,7.678" transform="translate(-162.808 -225.228)" fill="#f3f5f7"/>
          <path id="Path_47037" data-name="Path 47037" d="M195.995,329.565a6.368,6.368,0,1,0,6.237-6.5,6.368,6.368,0,0,0-6.237,6.5" transform="translate(-165.584 -228.005)" fill="#fff"/>
          <path id="Path_47038" data-name="Path 47038" d="M265.022,285.615a7.526,7.526,0,1,0-3.456,10.066,7.526,7.526,0,0,0,3.456-10.066" transform="translate(-238.75 -198.593)" fill="#f3f5f7"/>
          <path id="Path_47039" data-name="Path 47039" d="M266.76,288.9a6.368,6.368,0,1,0-2.924,8.518,6.368,6.368,0,0,0,2.924-8.518" transform="translate(-241.528 -201.37)" fill="#fff"/>
          <g id="Group_18549" data-name="Group 18549" transform="translate(21.159 88.39)" opacity="0.6">
            <g id="Group_18548" data-name="Group 18548">
              <g id="Group_18547" data-name="Group 18547" clip-path="url(#clip-path-3)">
                <path id="Path_47041" data-name="Path 47041" d="M260.9,301.069a1.478,1.478,0,1,0,2.043-.444,1.478,1.478,0,0,0-2.043.444" transform="translate(-260.666 -300.39)" fill="#fff"/>
              </g>
            </g>
          </g>
          <g id="Group_18552" data-name="Group 18552" transform="translate(85.898 25.365)" opacity="0.6">
            <g id="Group_18551" data-name="Group 18551">
              <g id="Group_18550" data-name="Group 18550" clip-path="url(#clip-path-4)">
                <path id="Path_47042" data-name="Path 47042" d="M40.886,86.88a1.478,1.478,0,1,0,2.043-.444,1.478,1.478,0,0,0-2.043.444" transform="translate(-40.651 -86.201)" fill="#fff"/>
              </g>
            </g>
          </g>
          <g id="Group_18555" data-name="Group 18555" transform="translate(68.77 14.35)" opacity="0.6">
            <g id="Group_18554" data-name="Group 18554">
              <g id="Group_18553" data-name="Group 18553" clip-path="url(#clip-path-3)">
                <path id="Path_47043" data-name="Path 47043" d="M99.1,49.448A1.478,1.478,0,1,0,101.14,49a1.478,1.478,0,0,0-2.043.444" transform="translate(-98.862 -48.769)" fill="#fff"/>
              </g>
            </g>
          </g>
          <g id="Group_18558" data-name="Group 18558" transform="translate(73.995 43.874)" opacity="0.6">
            <g id="Group_18557" data-name="Group 18557">
              <g id="Group_18556" data-name="Group 18556" clip-path="url(#clip-path-6)">
                <path id="Path_47044" data-name="Path 47044" d="M81.337,149.785a1.478,1.478,0,1,0,2.043-.444,1.478,1.478,0,0,0-2.043.444" transform="translate(-81.102 -149.106)" fill="#fff"/>
              </g>
            </g>
          </g>
          <g id="Group_18561" data-name="Group 18561" transform="translate(56.867 32.86)" opacity="0.6">
            <g id="Group_18560" data-name="Group 18560">
              <g id="Group_18559" data-name="Group 18559" clip-path="url(#clip-path-3)">
                <path id="Path_47045" data-name="Path 47045" d="M139.548,112.353a1.478,1.478,0,1,0,2.043-.444,1.478,1.478,0,0,0-2.043.444" transform="translate(-139.313 -111.674)" fill="#fff"/>
              </g>
            </g>
          </g>
          <g id="Group_18564" data-name="Group 18564" transform="translate(62.093 62.385)" opacity="0.6">
            <g id="Group_18563" data-name="Group 18563">
              <g id="Group_18562" data-name="Group 18562" clip-path="url(#clip-path-3)">
                <path id="Path_47046" data-name="Path 47046" d="M121.788,212.691a1.478,1.478,0,1,0,2.043-.443,1.478,1.478,0,0,0-2.043.443" transform="translate(-121.553 -212.012)" fill="#fff"/>
              </g>
            </g>
          </g>
          <g id="Group_18567" data-name="Group 18567" transform="translate(44.964 51.37)" opacity="0.6">
            <g id="Group_18566" data-name="Group 18566">
              <g id="Group_18565" data-name="Group 18565" clip-path="url(#clip-path-9)">
                <path id="Path_47047" data-name="Path 47047" d="M180,175.258a1.478,1.478,0,1,0,2.043-.444,1.478,1.478,0,0,0-2.043.444" transform="translate(-179.764 -174.579)" fill="#fff"/>
              </g>
            </g>
          </g>
          <g id="Group_18570" data-name="Group 18570" transform="translate(50.19 80.894)" opacity="0.6">
            <g id="Group_18569" data-name="Group 18569">
              <g id="Group_18568" data-name="Group 18568" clip-path="url(#clip-path-3)">
                <path id="Path_47048" data-name="Path 47048" d="M162.239,275.6a1.478,1.478,0,1,0,2.043-.444,1.478,1.478,0,0,0-2.043.444" transform="translate(-162.004 -274.917)" fill="#fff"/>
              </g>
            </g>
          </g>
          <g id="Group_18573" data-name="Group 18573" transform="translate(33.062 69.88)">
            <g id="Group_18572" data-name="Group 18572">
              <g id="Group_18571" data-name="Group 18571" clip-path="url(#clip-path-3)">
                <path id="Path_47049" data-name="Path 47049" d="M220.451,238.163a1.478,1.478,0,1,0,2.043-.444,1.478,1.478,0,0,0-2.043.444" transform="translate(-220.216 -237.485)" fill="#fff"/>
              </g>
            </g>
          </g>
          <g id="Group_18576" data-name="Group 18576" transform="translate(38.287 99.404)" opacity="0.6">
            <g id="Group_18575" data-name="Group 18575">
              <g id="Group_18574" data-name="Group 18574" clip-path="url(#clip-path-6)">
                <path id="Path_47050" data-name="Path 47050" d="M202.69,338.5a1.478,1.478,0,1,0,2.043-.444,1.478,1.478,0,0,0-2.043.444" transform="translate(-202.455 -337.822)" fill="#fff"/>
              </g>
            </g>
          </g>
        </g>
      </g>
    </g>
  </g>
</svg>
