<svg xmlns="http://www.w3.org/2000/svg" xmlns:xlink="http://www.w3.org/1999/xlink" width="226.066" height="65.518" viewBox="0 0 226.066 65.518">
  <defs>
    <clipPath id="clip-path">
      <ellipse id="Ellipse_1353" cx="15.943" cy="16.066" rx="15.943" ry="16.066" fill="none"/>
    </clipPath>
  </defs>
  <g id="group-8729" transform="translate(0 0.01)">
    <g id="Group_8708" transform="translate(73.495 14.774)">
      <path id="Path_17459" d="M301.647,253.051a16.094,16.094,0,0,1-4.488-.6,13.361,13.361,0,0,1-4.034-1.995v-5.42h3.159l.517,3.515a7.021,7.021,0,0,0,2.115.987,9.529,9.529,0,0,0,2.73.374,6.258,6.258,0,0,0,2.422-.414,3.354,3.354,0,0,0,1.5-1.159,3.013,3.013,0,0,0,.519-1.765,3.1,3.1,0,0,0-.453-1.668,3.941,3.941,0,0,0-1.507-1.3,13.427,13.427,0,0,0-2.853-1.058,20.194,20.194,0,0,1-4.414-1.684,7.339,7.339,0,0,1-2.673-2.333,6.067,6.067,0,0,1,.132-6.56,6.975,6.975,0,0,1,2.859-2.3,10.187,10.187,0,0,1,4.23-.859,13.432,13.432,0,0,1,4.641.681,11.116,11.116,0,0,1,3.409,1.863v5.072h-3.095l-.583-3.3a6.211,6.211,0,0,0-1.718-.8,8.429,8.429,0,0,0-2.5-.332,5.458,5.458,0,0,0-2.171.4,3.474,3.474,0,0,0-1.475,1.142,2.908,2.908,0,0,0-.529,1.757,2.617,2.617,0,0,0,.471,1.555,4.075,4.075,0,0,0,1.57,1.207,19.06,19.06,0,0,0,2.981,1.093,13.845,13.845,0,0,1,5.816,2.82,5.923,5.923,0,0,1,1.976,4.584,5.7,5.7,0,0,1-1.057,3.426,6.883,6.883,0,0,1-2.982,2.275,11.514,11.514,0,0,1-4.494.81" transform="translate(-293.125 -228.783)" fill="#a50c22"/>
      <path id="Path_17460" d="M324.588,253.051a9.914,9.914,0,0,1-4.243-.883,9.368,9.368,0,0,1-3.249-2.486,11.432,11.432,0,0,1-2.081-3.791,15.1,15.1,0,0,1-.73-4.794v-.357a15.046,15.046,0,0,1,.73-4.779,11.514,11.514,0,0,1,2.081-3.8,9.305,9.305,0,0,1,3.249-2.494,9.87,9.87,0,0,1,4.23-.883,10.179,10.179,0,0,1,4.325.883,9.2,9.2,0,0,1,3.257,2.494,11.368,11.368,0,0,1,2.057,3.8,15.333,15.333,0,0,1,.713,4.779v.357a15.387,15.387,0,0,1-.713,4.794,11.289,11.289,0,0,1-2.057,3.791,9.265,9.265,0,0,1-3.257,2.486,10.141,10.141,0,0,1-4.308.883m0-3.241a5.519,5.519,0,0,0,3.524-1.092,6.423,6.423,0,0,0,2.057-3.055,14.082,14.082,0,0,0,.673-4.568V240.7a13.67,13.67,0,0,0-.681-4.519,6.536,6.536,0,0,0-2.065-3.04,5.49,5.49,0,0,0-3.524-1.1,5.3,5.3,0,0,0-3.418,1.1,6.681,6.681,0,0,0-2.074,3.04,13.427,13.427,0,0,0-.7,4.519v.389a13.7,13.7,0,0,0,.7,4.56,6.594,6.594,0,0,0,2.083,3.062,5.362,5.362,0,0,0,3.426,1.092" transform="translate(-294.972 -228.783)" fill="#a50c22"/>
      <path id="Path_17461" d="M339.33,252.744v-2.5l2.559-.486V232.154l-2.559-.486v-2.512h8.408l6.916,17.052h.1l6.707-17.052h8.495v2.512l-2.575.486v17.609l2.575.486v2.494h-9.218v-2.5l2.706-.486V244.27l.032-10.32-.081-.015-7.3,18.279h-2.965l-7.517-18.177-.079.017.212,9.946v5.767l2.8.486v2.489Z" transform="translate(-297.161 -228.815)" fill="#a50c22"/>
      <path id="Path_17462" d="M374.068,252.744v-2.5l1.718-.242,7.807-20.85h3.966l7.712,20.85,1.718.242v2.5h-7.5v-2.5l1.685-.307-1.248-3.711h-8.78l-1.278,3.711,1.7.307v2.5Zm8.149-9.638h6.658l-3.062-8.732-.21-.632h-.1l-.227.661Z" transform="translate(-300.196 -228.815)" fill="#a50c22"/>
      <path id="Path_17463" d="M401.3,252.744v-2.5l2.575-.486V232.154l-2.575-.486v-2.512h9.218v2.512l-2.559.486v17.609l2.559.486v2.494Z" transform="translate(-302.574 -228.815)" fill="#a50c22"/>
      <path id="Path_17464" d="M419.9,252.744v-2.5l2.559-.486v-5.313l-7.1-12.459-2.139-.323v-2.512H422.1v2.512l-2.247.291,4.375,8.263.356.712.064-.032.34-.661,4.731-8.279-2.673-.291V229.16h8.7v2.512l-2.219.323-7,12.135v5.637l2.575.486v2.492Z" transform="translate(-303.616 -228.815)" fill="#a50c22"/>
      <path id="Path_17465" d="M435.183,252.744v-2.5l1.718-.242,7.807-20.85h3.966l7.712,20.85,1.718.242v2.5h-7.5v-2.5l1.685-.307-1.248-3.711h-8.78l-1.278,3.711,1.7.307v2.5Zm8.148-9.638h6.657l-3.062-8.732-.21-.632h-.1l-.226.661Z" transform="translate(-305.534 -228.815)" fill="#a50c22"/>
    </g>
    <g id="Group_8709" transform="translate(73.495 44.435)">
      <path id="Path_17466" d="M293.125,269.922v-1.216l.605-.09,2.572-7.326h2.247l2.578,7.326.605.09v1.215h-3.222v-1.215l.563-.107-.264-.937h-2.776l-.25.937.563.107v1.215Zm3.355-3.716h1.892l-.842-2.613-.1-.3H297.4l-.1.333Z" transform="translate(-293.125 -261.283)" fill="#a50c22"/>
      <path id="Path_17467" d="M314.539,269.922v-1.216l.895-.19v-1.439l-2.5-4.44-.9-.124V261.29h3.734v1.221l-.529.1,1.19,2.365.132.3h.053l.143-.284,1.387-2.379-.9-.1v-1.221h3.663v1.221l-.912.124-2.477,4.274v1.606l.9.19v1.215Z" transform="translate(-294.776 -261.283)" fill="#a50c22"/>
      <path id="Path_17468" d="M337.842,270.047a4.848,4.848,0,0,1-1.942-.358,2.815,2.815,0,0,1-1.277-1.058,3.05,3.05,0,0,1-.451-1.7V262.7l-.888-.19v-1.221h3.864v1.221l-.895.19v4.238a1.811,1.811,0,0,0,.184.863,1.145,1.145,0,0,0,.537.5,1.982,1.982,0,0,0,.857.167,2.036,2.036,0,0,0,.874-.167,1.132,1.132,0,0,0,.529-.5,1.836,1.836,0,0,0,.181-.863V262.7l-.888-.19v-1.221h3.864v1.221l-.895.19v4.238a2.964,2.964,0,0,1-.461,1.68,2.923,2.923,0,0,1-1.284,1.057A4.664,4.664,0,0,1,337.842,270.047Z" transform="translate(-296.634 -261.285)" fill="#a50c22"/>
      <path id="Path_17469" d="M354.51,269.922v-1.214l.895-.19V262.7l-.895-.19v-1.227h4.243a4.472,4.472,0,0,1,1.779.325,2.631,2.631,0,0,1,1.162.925,2.471,2.471,0,0,1,.408,1.425,2.587,2.587,0,0,1-.411,1.41,3.041,3.041,0,0,1-1.13,1.047,3.294,3.294,0,0,1-1.635.389l-1.44-.019v1.718l.895.19v1.215Zm2.976-4.724h1.293a1.376,1.376,0,0,0,.925-.282,1.014,1.014,0,0,0,.325-.814,1.207,1.207,0,0,0-.332-.886,1.28,1.28,0,0,0-.949-.334H357.48Zm2.489,4.724-1.161-3.367,1.807-.616,1.05,2.566.818.208v1.208Z" transform="translate(-298.487 -261.283)" fill="#a50c22"/>
      <path id="Path_17470" d="M377.347,269.922l-2.7-7.314-.818-.1v-1.221H377.7v1.221l-.771.119,1.547,4.847.083.337h.036l.077-.32,1.5-4.866-.925-.119V261.29h3.615v1.221l-.842.1-2.419,7.314Z" transform="translate(-300.175 -261.283)" fill="#a50c22"/>
      <path id="Path_17471" d="M394.935,269.923v-1.216l.895-.19V262.7l-.895-.19v-1.221H398.8v1.221l-.895.19v5.816l.895.19v1.215Z" transform="translate(-302.019 -261.284)" fill="#a50c22"/>
      <path id="Path_17472" d="M410.556,269.923v-1.216l.895-.19V262.7l-.895-.19v-1.221h3.87v1.221l-.895.19v2.18h3.142V262.7l-.895-.19v-1.221h3.864v1.221l-.895.19v5.816l.895.19v1.215h-3.864v-1.215l.895-.19v-2.04h-3.142v2.04l.895.19v1.215Z" transform="translate(-303.383 -261.284)" fill="#a50c22"/>
      <path id="Path_17473" d="M430.782,269.922v-1.216l.6-.09,2.572-7.326h2.247l2.578,7.326.605.09v1.215h-3.224v-1.215l.563-.107-.264-.937h-2.776l-.248.937.563.107v1.215Zm3.354-3.716h1.89l-.842-2.613-.1-.3h-.036l-.1.333Z" transform="translate(-305.15 -261.283)" fill="#a50c22"/>
      <path id="Path_17474" d="M451.494,269.922v-1.214l.895-.19V262.7l-.895-.19v-1.227h4.238a4.473,4.473,0,0,1,1.779.325,2.643,2.643,0,0,1,1.162.925,2.478,2.478,0,0,1,.409,1.425,2.588,2.588,0,0,1-.412,1.41,3.031,3.031,0,0,1-1.129,1.047,3.3,3.3,0,0,1-1.636.389l-1.44-.019v1.718l.895.19v1.215Zm2.976-4.724h1.293a1.378,1.378,0,0,0,.925-.282,1.017,1.017,0,0,0,.325-.814,1.2,1.2,0,0,0-.332-.886,1.277,1.277,0,0,0-.948-.334h-1.269Zm2.489,4.724-1.162-3.367,1.808-.616,1.05,2.566.818.208v1.208Z" transform="translate(-306.959 -261.283)" fill="#a50c22"/>
    </g>
    <g id="Group_8728" transform="translate(0 -0.01)">
      <g id="Group_8710" transform="translate(22.09 8.478)">
        <path id="Path_17475" d="M236.8,239.456V226.5c.305-2.652,1.8-4.627,4.59-4.627h16.428v4.442h-16.98v13.132Z" transform="translate(-236.8 -221.875)" fill="#00973d" fill-rule="evenodd"/>
      </g>
      <g id="Group_8711" transform="translate(18.005 4.463)">
        <path id="Path_17476" d="M235.436,239.071h-3.113V228.314c0-7.188,3.339-10.839,9.927-10.839h15.177v3.113H242.25c-4.839,0-6.814,2.237-6.814,7.72Z" transform="translate(-232.323 -217.475)" fill="#00973d"/>
      </g>
      <g id="Group_8712" transform="translate(15.598 1.906)">
        <path id="Path_17477" d="M229.768,238.835l-.083-11.039c-.018-2.416.411-6.929,3.486-10.011a11.416,11.416,0,0,1,8.423-3.093h.1l15.466.085-.008,1.557-15.466-.085h-.09a9.927,9.927,0,0,0-7.321,2.635c-2.676,2.681-3.047,6.727-3.031,8.9l.085,11.039Z" transform="translate(-229.685 -214.676)" fill="#00973d"/>
      </g>
      <g id="Group_8713" transform="translate(13.955)">
        <path id="Path_17478" d="M227.969,238.645l-.083-13.383a12.47,12.47,0,0,1,3.6-8.843,13.887,13.887,0,0,1,10.1-3.822h.1l15.347.083v.935l-15.347-.085h-.1a12.976,12.976,0,0,0-9.442,3.547,11.533,11.533,0,0,0-3.33,8.178l.083,13.383Z" transform="translate(-227.886 -212.588)" fill="#00973d"/>
      </g>
      <g id="Group_8714" transform="translate(8.604 22.1)">
        <path id="Path_17479" d="M222.024,236.8v14.822c-.052,3.219,1.322,6.278,4.48,6.278h1.659v-4.23h-1.74V236.8Z" transform="translate(-222.023 -236.8)" fill="#00973d" fill-rule="evenodd"/>
      </g>
      <g id="Group_8715" transform="translate(4.686 22.1)">
        <path id="Path_17480" d="M228.154,262.154h-.739c-9.685,0-9.685-9.811-9.685-13.035V236.8h3.113v12.313c0,7.047,1.9,9.922,6.572,9.922h.739Z" transform="translate(-217.73 -236.8)" fill="#00973d"/>
      </g>
      <g id="Group_8716" transform="translate(2.053 22.1)">
        <path id="Path_17481" d="M227.838,264.592l-1.031-.028a10.863,10.863,0,0,1-9.688-5.24,19.494,19.494,0,0,1-2.256-9.89l.086-12.636,1.556.011-.086,12.636c-.074,10.988,5.631,13.441,10.43,13.565l1.031.028Z" transform="translate(-214.848 -236.798)" fill="#00973d"/>
      </g>
      <g id="Group_8717" transform="translate(0 22.099)">
        <path id="Path_17482" d="M225.413,266.634a11.368,11.368,0,0,1-7.683-3.017,15.949,15.949,0,0,1-5.136-11.5l.085-15.319h.935l-.086,15.319a14.977,14.977,0,0,0,4.824,10.795,10.434,10.434,0,0,0,8.385,2.7l.793-.1.112.925-.793.1A11.956,11.956,0,0,1,225.413,266.634Z" transform="translate(-212.595 -236.798)" fill="#00973d"/>
      </g>
      <g id="Group_8718" transform="translate(39.43 21.619)">
        <path id="Path_17483" d="M273.667,257.282V240.9c-.307-2.652-1.8-4.627-4.59-4.627H255.8v4.442h13.289v16.567Z" transform="translate(-255.8 -236.272)" fill="#00973d" fill-rule="evenodd"/>
      </g>
      <g id="Group_8719" transform="translate(39.428 17.607)">
        <path id="Path_17484" d="M277.754,257.1h-3.113V242.705c0-5.482-1.974-7.718-6.814-7.718H255.8v-3.113h12.029c6.587,0,9.927,3.646,9.927,10.831Z" transform="translate(-255.798 -231.874)" fill="#00973d"/>
      </g>
      <g id="Group_8720" transform="translate(39.47 15.035)">
        <path id="Path_17485" d="M280.083,256.728l-1.561-.009.083-14.541c.013-2.182-.366-6.243-3.047-8.92a9.926,9.926,0,0,0-7.393-2.617l-12.311.085-.011-1.557,12.312-.083a11.443,11.443,0,0,1,8.5,3.072c3.08,3.077,3.518,7.6,3.5,10.03Z" transform="translate(-255.844 -229.065)" fill="#00973d"/>
      </g>
      <g id="Group_8721" transform="translate(39.44 13.145)">
        <path id="Path_17486" d="M281.718,256.6h-.933l.083-16.94a11.565,11.565,0,0,0-3.347-8.2A12.987,12.987,0,0,0,268,227.935l-12.2.083v-.933L268,227a13.908,13.908,0,0,1,10.186,3.8,12.5,12.5,0,0,1,3.622,8.865Z" transform="translate(-255.806 -226.988)" fill="#00973d"/>
      </g>
      <g id="Group_8722" transform="translate(22.182 38.679)">
        <path id="Path_17487" d="M251.044,281.8h-.153l-13.991-.087v-1.071l13.992.083h.145c6.045,0,9.541-2.225,11.416-4.1a10.575,10.575,0,0,0,3.2-7.557l-.1-14.11h1.072l.1,14.11a11.633,11.633,0,0,1-3.515,8.32C261.2,279.4,257.455,281.8,251.044,281.8Z" transform="translate(-236.9 -254.962)" fill="#00973d"/>
      </g>
      <g id="Group_8723" transform="translate(13.699 26.12)">
        <path id="Rectangle_5394" d="M0,0H38.382V12.732H0Z" fill="#e50019"/>
      </g>
      <g id="Group_8724" transform="translate(26.011 13.36)">
        <path id="Rectangle_5395" d="M0,0H13.5V25.491H0Z" fill="#e50019"/>
      </g>
      <g id="Group_8727" transform="translate(16.986 30.363)">
        <g id="Group_8726" transform="translate(0 0)">
          <g id="Group_8725" clip-path="url(#clip-path)">
            <path id="Path_17489" d="M263.093,246.062H231.208v-.21h31.885Z" transform="translate(-231.208 -245.852)" fill="#f36a10" fill-rule="evenodd"/>
            <path id="Rectangle_5396" d="M0,0H31.885V.21H0Z" transform="translate(0 0.21)" fill="#f36b10"/>
            <path id="Rectangle_5397" d="M0,0H31.885V.21H0Z" transform="translate(0 0.42)" fill="#f46c10"/>
            <path id="Rectangle_5398" d="M0,0H31.885V.21H0Z" transform="translate(0 0.631)" fill="#f46d10"/>
            <path id="Rectangle_5399" d="M0,0H31.885V.21H0Z" transform="translate(0 0.841)" fill="#f46d0f"/>
            <path id="Rectangle_5400" d="M0,0H31.885V.21H0Z" transform="translate(0 1.05)" fill="#f46e0f"/>
            <path id="Rectangle_5401" d="M0,0H31.885V.21H0Z" transform="translate(0 1.26)" fill="#f46f0f"/>
            <path id="Rectangle_5402" d="M0,0H31.885V.21H0Z" transform="translate(0 1.47)" fill="#f4700f"/>
            <path id="Rectangle_5403" d="M0,0H31.885V.21H0Z" transform="translate(0 1.68)" fill="#f5700f"/>
            <path id="Rectangle_5404" d="M0,0H31.885V.21H0Z" transform="translate(0 1.89)" fill="#f5710f"/>
            <path id="Rectangle_5405" d="M0,0H31.885V.21H0Z" transform="translate(0 2.1)" fill="#f5720e"/>
            <path id="Rectangle_5406" d="M0,0H31.885V.21H0Z" transform="translate(0 2.311)" fill="#f5730e"/>
            <path id="Rectangle_5407" d="M0,0H31.885V.21H0Z" transform="translate(0 2.52)" fill="#f5730e"/>
            <path id="Rectangle_5408" d="M0,0H31.885V.21H0Z" transform="translate(0 2.73)" fill="#f5740e"/>
            <path id="Rectangle_5409" d="M0,0H31.885V.21H0Z" transform="translate(0 2.94)" fill="#f6750e"/>
            <path id="Rectangle_5410" d="M0,0H31.885V.21H0Z" transform="translate(0 3.15)" fill="#f6760e"/>
            <path id="Rectangle_5411" d="M0,0H31.885V.21H0Z" transform="translate(0 3.36)" fill="#f6770d"/>
            <path id="Rectangle_5412" d="M0,0H31.885V.21H0Z" transform="translate(0 3.57)" fill="#f6770d"/>
            <path id="Rectangle_5413" d="M0,0H31.885V.21H0Z" transform="translate(0 3.781)" fill="#f6780d"/>
            <path id="Rectangle_5414" d="M0,0H31.885V.21H0Z" transform="translate(0 3.991)" fill="#f6790d"/>
            <path id="Rectangle_5415" d="M0,0H31.885V.21H0Z" transform="translate(0 4.201)" fill="#f77a0d"/>
            <path id="Rectangle_5416" d="M0,0H31.885V.21H0Z" transform="translate(0 4.41)" fill="#f77a0c"/>
            <path id="Rectangle_5417" d="M0,0H31.885V.21H0Z" transform="translate(0 4.62)" fill="#f77b0c"/>
            <path id="Rectangle_5418" d="M0,0H31.885V.21H0Z" transform="translate(0 4.83)" fill="#f77c0c"/>
            <path id="Rectangle_5419" d="M0,0H31.885V.21H0Z" transform="translate(0 5.04)" fill="#f77d0c"/>
            <path id="Rectangle_5420" d="M0,0H31.885V.21H0Z" transform="translate(0 5.251)" fill="#f77d0b"/>
            <path id="Rectangle_5421" d="M0,0H31.885V.21H0Z" transform="translate(0 5.461)" fill="#f87e0b"/>
            <path id="Rectangle_5422" d="M0,0H31.885V.21H0Z" transform="translate(0 5.671)" fill="#f87f0b"/>
            <path id="Rectangle_5423" d="M0,0H31.885V.21H0Z" transform="translate(0 5.881)" fill="#f8800b"/>
            <path id="Rectangle_5424" d="M0,0H31.885V.21H0Z" transform="translate(0 6.09)" fill="#f8800a"/>
            <path id="Rectangle_5425" d="M0,0H31.885V.21H0Z" transform="translate(0 6.3)" fill="#f8810a"/>
            <path id="Rectangle_5426" d="M0,0H31.885V.21H0Z" transform="translate(0 6.51)" fill="#f9820a"/>
            <path id="Rectangle_5427" d="M0,0H31.885V.21H0Z" transform="translate(0 6.72)" fill="#f9830a"/>
            <path id="Rectangle_5428" d="M0,0H31.885V.21H0Z" transform="translate(0 6.931)" fill="#f98409"/>
            <path id="Rectangle_5429" d="M0,0H31.885V.21H0Z" transform="translate(0 7.141)" fill="#f98409"/>
            <path id="Rectangle_5430" d="M0,0H31.885V.21H0Z" transform="translate(0 7.351)" fill="#f98509"/>
            <path id="Rectangle_5431" d="M0,0H31.885V.21H0Z" transform="translate(0 7.561)" fill="#fa8608"/>
            <path id="Rectangle_5432" d="M0,0H31.885V.21H0Z" transform="translate(0 7.77)" fill="#fa8708"/>
            <path id="Rectangle_5433" d="M0,0H31.885V.21H0Z" transform="translate(0 7.98)" fill="#fa8807"/>
            <path id="Rectangle_5434" d="M0,0H31.885V.21H0Z" transform="translate(0 8.19)" fill="#fa8807"/>
            <path id="Rectangle_5435" d="M0,0H31.885V.21H0Z" transform="translate(0 8.401)" fill="#fa8907"/>
            <path id="Rectangle_5436" d="M0,0H31.885V.21H0Z" transform="translate(0 8.611)" fill="#fb8a06"/>
            <path id="Rectangle_5437" d="M0,0H31.885V.21H0Z" transform="translate(0 8.821)" fill="#fb8b05"/>
            <path id="Rectangle_5438" d="M0,0H31.885V.21H0Z" transform="translate(0 9.031)" fill="#fb8c05"/>
            <path id="Rectangle_5439" d="M0,0H31.885V.21H0Z" transform="translate(0 9.241)" fill="#fb8d04"/>
            <path id="Rectangle_5440" d="M0,0H31.885V.21H0Z" transform="translate(0 9.45)" fill="#fb8d04"/>
            <path id="Rectangle_5441" d="M0,0H31.885V.21H0Z" transform="translate(0 9.66)" fill="#fc8e03"/>
            <path id="Rectangle_5442" d="M0,0H31.885V.21H0Z" transform="translate(0 9.87)" fill="#fc8f01"/>
            <path id="Rectangle_5443" d="M0,0H31.885V.21H0Z" transform="translate(0 10.081)" fill="#fc9000"/>
            <path id="Rectangle_5444" d="M0,0H31.885V.21H0Z" transform="translate(0 10.291)" fill="#fc9100"/>
            <path id="Rectangle_5445" d="M0,0H31.885V.21H0Z" transform="translate(0 10.501)" fill="#fc9100"/>
            <path id="Rectangle_5446" d="M0,0H31.885V.21H0Z" transform="translate(0 10.711)" fill="#fd9200"/>
            <path id="Rectangle_5447" d="M0,0H31.885V.21H0Z" transform="translate(0 10.921)" fill="#fd9300"/>
            <path id="Rectangle_5448" d="M0,0H31.885V.21H0Z" transform="translate(0 11.13)" fill="#fd9400"/>
            <path id="Rectangle_5449" d="M0,0H31.885V.21H0Z" transform="translate(0 11.34)" fill="#fd9500"/>
            <path id="Rectangle_5450" d="M0,0H31.885V.21H0Z" transform="translate(0 11.551)" fill="#fd9600"/>
            <path id="Rectangle_5451" d="M0,0H31.885V.21H0Z" transform="translate(0 11.761)" fill="#fe9600"/>
            <path id="Rectangle_5452" d="M0,0H31.885V.21H0Z" transform="translate(0 11.971)" fill="#fe9700"/>
            <path id="Rectangle_5453" d="M0,0H31.885V.21H0Z" transform="translate(0 12.181)" fill="#fe9800"/>
            <path id="Rectangle_5454" d="M0,0H31.885V.21H0Z" transform="translate(0 12.391)" fill="#fe9900"/>
            <path id="Rectangle_5455" d="M0,0H31.885V.21H0Z" transform="translate(0 12.602)" fill="#fe9a00"/>
            <path id="Rectangle_5456" d="M0,0H31.885V.21H0Z" transform="translate(0 12.81)" fill="#ff9b00"/>
            <path id="Rectangle_5457" d="M0,0H31.885V.21H0Z" transform="translate(0 13.021)" fill="#ff9c00"/>
            <path id="Rectangle_5458" d="M0,0H31.885V.21H0Z" transform="translate(0 13.231)" fill="#ff9c00"/>
            <path id="Rectangle_5459" d="M0,0H31.885V.21H0Z" transform="translate(0 13.441)" fill="#ff9d00"/>
            <path id="Rectangle_5460" d="M0,0H31.885V.21H0Z" transform="translate(0 13.651)" fill="#ff9e00"/>
            <path id="Rectangle_5461" d="M0,0H31.885V.21H0Z" transform="translate(0 13.861)" fill="#ff9f00"/>
            <path id="Rectangle_5462" d="M0,0H31.885V.21H0Z" transform="translate(0 14.071)" fill="#ffa000"/>
            <path id="Rectangle_5463" d="M0,0H31.885V.21H0Z" transform="translate(0 14.282)" fill="#ffa100"/>
            <path id="Rectangle_5464" d="M0,0H31.885V.21H0Z" transform="translate(0 14.49)" fill="#ffa200"/>
            <path id="Rectangle_5465" d="M0,0H31.885V.21H0Z" transform="translate(0 14.701)" fill="#ffa200"/>
            <path id="Rectangle_5466" d="M0,0H31.885V.21H0Z" transform="translate(0 14.911)" fill="#ffa300"/>
            <path id="Rectangle_5467" d="M0,0H31.885V.21H0Z" transform="translate(0 15.121)" fill="#ffa400"/>
            <path id="Rectangle_5468" d="M0,0H31.885V.21H0Z" transform="translate(0 15.331)" fill="orange"/>
            <path id="Rectangle_5469" d="M0,0H31.885V.21H0Z" transform="translate(0 15.541)" fill="#ffa600"/>
            <path id="Rectangle_5470" d="M0,0H31.885V.21H0Z" transform="translate(0 15.752)" fill="#ffa700"/>
            <path id="Rectangle_5471" d="M0,0H31.885V.21H0Z" transform="translate(0 15.962)" fill="#ffa800"/>
            <path id="Rectangle_5472" d="M0,0H31.885V.21H0Z" transform="translate(0 16.171)" fill="#ffa800"/>
            <path id="Rectangle_5473" d="M0,0H31.885V.21H0Z" transform="translate(0 16.381)" fill="#ffa900"/>
            <path id="Rectangle_5474" d="M0,0H31.885V.21H0Z" transform="translate(0 16.591)" fill="#fa0"/>
            <path id="Rectangle_5475" d="M0,0H31.885V.21H0Z" transform="translate(0 16.801)" fill="#ffab00"/>
            <path id="Rectangle_5476" d="M0,0H31.885V.21H0Z" transform="translate(0 17.011)" fill="#ffac00"/>
            <path id="Rectangle_5477" d="M0,0H31.885V.21H0Z" transform="translate(0 17.221)" fill="#ffad00"/>
            <path id="Rectangle_5478" d="M0,0H31.885V.21H0Z" transform="translate(0 17.432)" fill="#ffae00"/>
            <path id="Rectangle_5479" d="M0,0H31.885V.21H0Z" transform="translate(0 17.642)" fill="#ffaf00"/>
            <path id="Rectangle_5480" d="M0,0H31.885V.21H0Z" transform="translate(0 17.852)" fill="#ffaf00"/>
            <path id="Rectangle_5481" d="M0,0H31.885V.21H0Z" transform="translate(0 18.061)" fill="#ffb000"/>
            <path id="Rectangle_5482" d="M0,0H31.885V.21H0Z" transform="translate(0 18.271)" fill="#ffb100"/>
            <path id="Rectangle_5483" d="M0,0H31.885V.21H0Z" transform="translate(0 18.481)" fill="#ffb200"/>
            <path id="Rectangle_5484" d="M0,0H31.885V.21H0Z" transform="translate(0 18.691)" fill="#ffb300"/>
            <path id="Rectangle_5485" d="M0,0H31.885V.21H0Z" transform="translate(0 18.902)" fill="#ffb400"/>
            <path id="Rectangle_5486" d="M0,0H31.885V.21H0Z" transform="translate(0 19.112)" fill="#ffb500"/>
            <path id="Rectangle_5487" d="M0,0H31.885V.21H0Z" transform="translate(0 19.322)" fill="#ffb600"/>
            <path id="Rectangle_5488" d="M0,0H31.885V.21H0Z" transform="translate(0 19.531)" fill="#ffb600"/>
            <path id="Rectangle_5489" d="M0,0H31.885V.21H0Z" transform="translate(0 19.741)" fill="#ffb700"/>
            <path id="Rectangle_5490" d="M0,0H31.885V.21H0Z" transform="translate(0 19.951)" fill="#ffb800"/>
            <path id="Rectangle_5491" d="M0,0H31.885V.21H0Z" transform="translate(0 20.161)" fill="#ffb900"/>
            <path id="Rectangle_5492" d="M0,0H31.885V.21H0Z" transform="translate(0 20.372)" fill="#ffba00"/>
            <path id="Rectangle_5493" d="M0,0H31.885V.21H0Z" transform="translate(0 20.582)" fill="#fb0"/>
            <path id="Rectangle_5494" d="M0,0H31.885V.21H0Z" transform="translate(0 20.792)" fill="#ffbc00"/>
            <path id="Rectangle_5495" d="M0,0H31.885V.21H0Z" transform="translate(0 21.002)" fill="#ffbc00"/>
            <path id="Rectangle_5496" d="M0,0H31.885V.21H0Z" transform="translate(0 21.212)" fill="#ffbd00"/>
            <path id="Rectangle_5497" d="M0,0H31.885V.21H0Z" transform="translate(0 21.421)" fill="#ffbe00"/>
            <path id="Rectangle_5498" d="M0,0H31.885V.21H0Z" transform="translate(0 21.631)" fill="#ffbf00"/>
            <path id="Rectangle_5499" d="M0,0H31.885V.21H0Z" transform="translate(0 21.841)" fill="#ffc000"/>
            <path id="Rectangle_5500" d="M0,0H31.885V.21H0Z" transform="translate(0 22.052)" fill="#ffc100"/>
            <path id="Rectangle_5501" d="M0,0H31.885V.21H0Z" transform="translate(0 22.262)" fill="#ffc200"/>
            <path id="Rectangle_5502" d="M0,0H31.885V.21H0Z" transform="translate(0 22.472)" fill="#ffc300"/>
            <path id="Rectangle_5503" d="M0,0H31.885V.21H0Z" transform="translate(0 22.682)" fill="#ffc300"/>
            <path id="Rectangle_5504" d="M0,0H31.885V.21H0Z" transform="translate(0 22.892)" fill="#ffc400"/>
            <path id="Rectangle_5505" d="M0,0H31.885V.21H0Z" transform="translate(0 23.101)" fill="#ffc500"/>
            <path id="Rectangle_5506" d="M0,0H31.885V.21H0Z" transform="translate(0 23.311)" fill="#ffc600"/>
            <path id="Rectangle_5507" d="M0,0H31.885V.21H0Z" transform="translate(0 23.522)" fill="#ffc700"/>
            <path id="Rectangle_5508" d="M0,0H31.885V.21H0Z" transform="translate(0 23.732)" fill="#ffc800"/>
            <path id="Rectangle_5509" d="M0,0H31.885V.21H0Z" transform="translate(0 23.942)" fill="#ffc900"/>
            <path id="Rectangle_5510" d="M0,0H31.885V.21H0Z" transform="translate(0 24.152)" fill="#ffca00"/>
            <path id="Rectangle_5511" d="M0,0H31.885V.21H0Z" transform="translate(0 24.362)" fill="#ffca00"/>
            <path id="Rectangle_5512" d="M0,0H31.885V.21H0Z" transform="translate(0 24.572)" fill="#ffcb00"/>
            <path id="Rectangle_5513" d="M0,0H31.885V.21H0Z" transform="translate(0 24.781)" fill="#fc0"/>
            <path id="Rectangle_5514" d="M0,0H31.885V.21H0Z" transform="translate(0 24.992)" fill="#ffcd00"/>
            <path id="Rectangle_5515" d="M0,0H31.885V.21H0Z" transform="translate(0 25.202)" fill="#ffce00"/>
            <path id="Rectangle_5516" d="M0,0H31.885V.21H0Z" transform="translate(0 25.412)" fill="#ffcf00"/>
            <path id="Rectangle_5517" d="M0,0H31.885V.21H0Z" transform="translate(0 25.622)" fill="#ffd000"/>
            <path id="Rectangle_5518" d="M0,0H31.885V.21H0Z" transform="translate(0 25.832)" fill="#ffd100"/>
            <path id="Rectangle_5519" d="M0,0H31.885V.21H0Z" transform="translate(0 26.042)" fill="#ffd100"/>
            <path id="Rectangle_5520" d="M0,0H31.885V.21H0Z" transform="translate(0 26.253)" fill="#ffd200"/>
            <path id="Rectangle_5521" d="M0,0H31.885V.21H0Z" transform="translate(0 26.461)" fill="#ffd300"/>
            <path id="Rectangle_5522" d="M0,0H31.885V.21H0Z" transform="translate(0 26.672)" fill="#ffd400"/>
            <path id="Rectangle_5523" d="M0,0H31.885V.21H0Z" transform="translate(0 26.882)" fill="#ffd500"/>
            <path id="Rectangle_5524" d="M0,0H31.885V.21H0Z" transform="translate(0 27.092)" fill="#ffd600"/>
            <path id="Rectangle_5525" d="M0,0H31.885V.21H0Z" transform="translate(0 27.302)" fill="gold"/>
            <path id="Rectangle_5526" d="M0,0H31.885V.21H0Z" transform="translate(0 27.512)" fill="#ffd800"/>
            <path id="Rectangle_5527" d="M0,0H31.885V.21H0Z" transform="translate(0 27.723)" fill="#ffd900"/>
            <path id="Rectangle_5528" d="M0,0H31.885V.21H0Z" transform="translate(0 27.933)" fill="#ffd900"/>
            <path id="Rectangle_5529" d="M0,0H31.885V.21H0Z" transform="translate(0 28.142)" fill="#ffda00"/>
            <path id="Rectangle_5530" d="M0,0H31.885V.21H0Z" transform="translate(0 28.352)" fill="#ffdb00"/>
            <path id="Rectangle_5531" d="M0,0H31.885V.21H0Z" transform="translate(0 28.562)" fill="#ffdc00"/>
            <path id="Rectangle_5532" d="M0,0H31.885V.21H0Z" transform="translate(0 28.772)" fill="#fd0"/>
            <path id="Rectangle_5533" d="M0,0H31.885V.21H0Z" transform="translate(0 28.982)" fill="#ffde00"/>
            <path id="Rectangle_5534" d="M0,0H31.885V.21H0Z" transform="translate(0 29.192)" fill="#ffdf00"/>
            <path id="Rectangle_5535" d="M0,0H31.885V.21H0Z" transform="translate(0 29.403)" fill="#ffe000"/>
            <path id="Rectangle_5536" d="M0,0H31.885V.21H0Z" transform="translate(0 29.613)" fill="#ffe100"/>
            <path id="Rectangle_5537" d="M0,0H31.885V.21H0Z" transform="translate(0 29.822)" fill="#ffe200"/>
            <path id="Rectangle_5538" d="M0,0H31.885V.21H0Z" transform="translate(0 30.032)" fill="#ffe200"/>
            <path id="Rectangle_5539" d="M0,0H31.885V.21H0Z" transform="translate(0 30.242)" fill="#ffe300"/>
            <path id="Rectangle_5540" d="M0,0H31.885V.21H0Z" transform="translate(0 30.452)" fill="#ffe400"/>
            <path id="Rectangle_5541" d="M0,0H31.885V.21H0Z" transform="translate(0 30.662)" fill="#ffe500"/>
            <path id="Rectangle_5542" d="M0,0H31.885V.21H0Z" transform="translate(0 30.873)" fill="#ffe600"/>
            <path id="Rectangle_5543" d="M0,0H31.885V.21H0Z" transform="translate(0 31.083)" fill="#ffe800"/>
            <path id="Rectangle_5544" d="M0,0H31.885V.21H0Z" transform="translate(0 31.293)" fill="#ffe900"/>
            <path id="Rectangle_5545" d="M0,0H31.885V.21H0Z" transform="translate(0 31.502)" fill="#ffea00"/>
            <path id="Rectangle_5546" d="M0,0H31.885V.21H0Z" transform="translate(0 31.712)" fill="#ffec00"/>
            <path id="Path_17490" d="M247.15,281.04H231.208v-.21h31.885v.21Z" transform="translate(-231.208 -248.908)" fill="#fe0" fill-rule="evenodd"/>
          </g>
        </g>
      </g>
    </g>
  </g>
</svg>
